<mxfile host="app.diagrams.net" modified="2023-01-04T09:35:11.789Z" agent="5.0 (Windows NT 10.0; Win64; x64) AppleWebKit/537.36 (KHTML, like Gecko) Chrome/108.0.0.0 Safari/537.36" version="20.7.4" etag="hPKSC6qlNyfkL7XkWldb" type="github">
  <diagram id="BEqY6qMiZc0pSCxEbsnE" name="第 1 页">
    <mxGraphModel dx="2261" dy="764" grid="1" gridSize="10" guides="1" tooltips="1" connect="1" arrows="1" fold="1" page="1" pageScale="1" pageWidth="827" pageHeight="1169" math="0" shadow="0">
      <root>
        <mxCell id="0" />
        <mxCell id="1" parent="0" />
        <mxCell id="1oIEDaCn8aH1IIvnRZRh-3" style="edgeStyle=orthogonalEdgeStyle;rounded=0;orthogonalLoop=1;jettySize=auto;html=1;exitX=0.5;exitY=1;exitDx=0;exitDy=0;entryX=0.5;entryY=0;entryDx=0;entryDy=0;" edge="1" parent="1" source="1oIEDaCn8aH1IIvnRZRh-1" target="1oIEDaCn8aH1IIvnRZRh-2">
          <mxGeometry relative="1" as="geometry" />
        </mxCell>
        <mxCell id="1oIEDaCn8aH1IIvnRZRh-34" style="edgeStyle=orthogonalEdgeStyle;rounded=0;orthogonalLoop=1;jettySize=auto;html=1;exitX=1;exitY=0.5;exitDx=0;exitDy=0;" edge="1" parent="1" source="1oIEDaCn8aH1IIvnRZRh-1">
          <mxGeometry relative="1" as="geometry">
            <mxPoint x="360" y="130" as="targetPoint" />
          </mxGeometry>
        </mxCell>
        <mxCell id="1oIEDaCn8aH1IIvnRZRh-1" value="档期日历维护&lt;br&gt;&lt;b&gt;&lt;font color=&quot;#ff3333&quot;&gt;平均26档/年*3年&lt;/font&gt;&lt;/b&gt;" style="rounded=1;whiteSpace=wrap;html=1;fillColor=#dae8fc;strokeColor=#6c8ebf;" vertex="1" parent="1">
          <mxGeometry x="120" y="100" width="120" height="60" as="geometry" />
        </mxCell>
        <mxCell id="1oIEDaCn8aH1IIvnRZRh-6" value="" style="edgeStyle=orthogonalEdgeStyle;rounded=0;orthogonalLoop=1;jettySize=auto;html=1;" edge="1" parent="1" source="1oIEDaCn8aH1IIvnRZRh-2" target="1oIEDaCn8aH1IIvnRZRh-5">
          <mxGeometry relative="1" as="geometry" />
        </mxCell>
        <mxCell id="1oIEDaCn8aH1IIvnRZRh-36" style="edgeStyle=orthogonalEdgeStyle;rounded=0;orthogonalLoop=1;jettySize=auto;html=1;exitX=1;exitY=0.5;exitDx=0;exitDy=0;entryX=0;entryY=0.5;entryDx=0;entryDy=0;" edge="1" parent="1" source="1oIEDaCn8aH1IIvnRZRh-2" target="1oIEDaCn8aH1IIvnRZRh-37">
          <mxGeometry relative="1" as="geometry">
            <mxPoint x="330" y="230" as="targetPoint" />
          </mxGeometry>
        </mxCell>
        <mxCell id="1oIEDaCn8aH1IIvnRZRh-2" value="全年档期维护&lt;br&gt;&lt;font color=&quot;#ff3333&quot;&gt;&lt;b&gt;平均25SKU/档&lt;/b&gt;&lt;/font&gt;" style="rounded=1;whiteSpace=wrap;html=1;fillColor=#dae8fc;strokeColor=#6c8ebf;" vertex="1" parent="1">
          <mxGeometry x="120" y="200" width="120" height="60" as="geometry" />
        </mxCell>
        <mxCell id="1oIEDaCn8aH1IIvnRZRh-4" value="【1】基于【到店规则】拆分得到的【档期】到店目标数据&lt;br&gt;【2】获取父客户&amp;amp;SKU下工作日、双休日、节假日、会员日权重&lt;br&gt;【3】遍历档期起始、终止时间，给每一天赋权重，计算每天占比&lt;br&gt;【4】根据【档期】到店目标数据*到日占比计算获得到店到日数据" style="rounded=1;whiteSpace=wrap;html=1;align=left;fillColor=#dae8fc;strokeColor=#6c8ebf;" vertex="1" parent="1">
          <mxGeometry x="360" y="1080" width="440" height="60" as="geometry" />
        </mxCell>
        <mxCell id="1oIEDaCn8aH1IIvnRZRh-8" value="" style="edgeStyle=orthogonalEdgeStyle;rounded=0;orthogonalLoop=1;jettySize=auto;html=1;" edge="1" parent="1" source="1oIEDaCn8aH1IIvnRZRh-5" target="1oIEDaCn8aH1IIvnRZRh-7">
          <mxGeometry relative="1" as="geometry" />
        </mxCell>
        <mxCell id="1oIEDaCn8aH1IIvnRZRh-39" style="edgeStyle=orthogonalEdgeStyle;rounded=0;orthogonalLoop=1;jettySize=auto;html=1;exitX=1;exitY=0.5;exitDx=0;exitDy=0;" edge="1" parent="1" source="1oIEDaCn8aH1IIvnRZRh-5">
          <mxGeometry relative="1" as="geometry">
            <mxPoint x="360" y="330" as="targetPoint" />
          </mxGeometry>
        </mxCell>
        <mxCell id="1oIEDaCn8aH1IIvnRZRh-5" value="到店拆分规则&lt;br&gt;导入" style="whiteSpace=wrap;html=1;rounded=1;fillColor=#dae8fc;strokeColor=#6c8ebf;" vertex="1" parent="1">
          <mxGeometry x="120" y="300" width="120" height="60" as="geometry" />
        </mxCell>
        <mxCell id="1oIEDaCn8aH1IIvnRZRh-22" style="edgeStyle=orthogonalEdgeStyle;rounded=0;orthogonalLoop=1;jettySize=auto;html=1;exitX=0.5;exitY=1;exitDx=0;exitDy=0;entryX=0.5;entryY=0;entryDx=0;entryDy=0;" edge="1" parent="1" source="1oIEDaCn8aH1IIvnRZRh-7" target="1oIEDaCn8aH1IIvnRZRh-9">
          <mxGeometry relative="1" as="geometry" />
        </mxCell>
        <mxCell id="1oIEDaCn8aH1IIvnRZRh-43" style="edgeStyle=orthogonalEdgeStyle;rounded=0;orthogonalLoop=1;jettySize=auto;html=1;exitX=1;exitY=0.5;exitDx=0;exitDy=0;entryX=0;entryY=0.5;entryDx=0;entryDy=0;" edge="1" parent="1" source="1oIEDaCn8aH1IIvnRZRh-7" target="1oIEDaCn8aH1IIvnRZRh-44">
          <mxGeometry relative="1" as="geometry">
            <mxPoint x="350" y="440" as="targetPoint" />
          </mxGeometry>
        </mxCell>
        <mxCell id="1oIEDaCn8aH1IIvnRZRh-7" value="到日拆分规则&lt;br&gt;导入" style="whiteSpace=wrap;html=1;rounded=1;fillColor=#dae8fc;strokeColor=#6c8ebf;" vertex="1" parent="1">
          <mxGeometry x="120" y="410" width="120" height="60" as="geometry" />
        </mxCell>
        <mxCell id="1oIEDaCn8aH1IIvnRZRh-12" value="" style="edgeStyle=orthogonalEdgeStyle;rounded=0;orthogonalLoop=1;jettySize=auto;html=1;" edge="1" parent="1" source="1oIEDaCn8aH1IIvnRZRh-9" target="1oIEDaCn8aH1IIvnRZRh-11">
          <mxGeometry relative="1" as="geometry" />
        </mxCell>
        <mxCell id="1oIEDaCn8aH1IIvnRZRh-27" style="edgeStyle=orthogonalEdgeStyle;rounded=0;orthogonalLoop=1;jettySize=auto;html=1;exitX=1;exitY=0.5;exitDx=0;exitDy=0;entryX=0;entryY=0.5;entryDx=0;entryDy=0;" edge="1" parent="1" source="1oIEDaCn8aH1IIvnRZRh-9" target="1oIEDaCn8aH1IIvnRZRh-26">
          <mxGeometry relative="1" as="geometry" />
        </mxCell>
        <mxCell id="1oIEDaCn8aH1IIvnRZRh-9" value="【预算】&lt;br&gt;拆分到店" style="rounded=1;whiteSpace=wrap;html=1;fillColor=#d5e8d4;strokeColor=#82b366;" vertex="1" parent="1">
          <mxGeometry x="120" y="780" width="120" height="60" as="geometry" />
        </mxCell>
        <mxCell id="1oIEDaCn8aH1IIvnRZRh-16" value="" style="edgeStyle=orthogonalEdgeStyle;rounded=0;orthogonalLoop=1;jettySize=auto;html=1;" edge="1" parent="1" source="1oIEDaCn8aH1IIvnRZRh-11" target="1oIEDaCn8aH1IIvnRZRh-15">
          <mxGeometry relative="1" as="geometry" />
        </mxCell>
        <mxCell id="1oIEDaCn8aH1IIvnRZRh-28" style="edgeStyle=orthogonalEdgeStyle;rounded=0;orthogonalLoop=1;jettySize=auto;html=1;exitX=1;exitY=0.5;exitDx=0;exitDy=0;entryX=0;entryY=0.5;entryDx=0;entryDy=0;" edge="1" parent="1" source="1oIEDaCn8aH1IIvnRZRh-11" target="1oIEDaCn8aH1IIvnRZRh-4">
          <mxGeometry relative="1" as="geometry" />
        </mxCell>
        <mxCell id="1oIEDaCn8aH1IIvnRZRh-11" value="【预算】&lt;br&gt;拆分到天" style="whiteSpace=wrap;html=1;rounded=1;fillColor=#d5e8d4;strokeColor=#82b366;" vertex="1" parent="1">
          <mxGeometry x="120" y="1080" width="120" height="60" as="geometry" />
        </mxCell>
        <mxCell id="1oIEDaCn8aH1IIvnRZRh-15" value="【预算】&lt;br&gt;锁定" style="whiteSpace=wrap;html=1;rounded=1;fillColor=#d5e8d4;strokeColor=#82b366;" vertex="1" parent="1">
          <mxGeometry x="120" y="1330" width="120" height="60" as="geometry" />
        </mxCell>
        <mxCell id="1oIEDaCn8aH1IIvnRZRh-26" value="【1】父客户下SKU&amp;amp;档期粒度目标数据&lt;br&gt;【2】父客户下不同门店的到店权重&lt;br&gt;【3】根据父客户下不同门店到店权重，计算出每个门店不同SKU下占比&lt;br&gt;【4】基于父客户下不同门店占比，计算【档期】到店目标数据" style="rounded=1;whiteSpace=wrap;html=1;align=left;fillColor=#dae8fc;strokeColor=#6c8ebf;" vertex="1" parent="1">
          <mxGeometry x="360" y="780" width="440" height="60" as="geometry" />
        </mxCell>
        <mxCell id="1oIEDaCn8aH1IIvnRZRh-29" value="&lt;br&gt;性能整理：&lt;br&gt;到店数据规模：1462W条，表结构80列，每秒处理：5000条（mysql+ES）&lt;br&gt;到日数据规模：20531W条，表结构95列，每秒处理：4500条(mysql+ES)" style="rounded=1;whiteSpace=wrap;html=1;align=left;fillColor=#fff2cc;strokeColor=#d6b656;" vertex="1" parent="1">
          <mxGeometry x="-380" y="810" width="430" height="160" as="geometry" />
        </mxCell>
        <mxCell id="1oIEDaCn8aH1IIvnRZRh-32" value="&lt;br&gt;&lt;br&gt;父客户：300个&lt;span style=&quot;&quot;&gt;	&lt;span style=&quot;&quot;&gt;	&lt;/span&gt;&lt;span style=&quot;&quot;&gt;	&lt;/span&gt;&lt;/span&gt;SKU(平均)：25个&lt;br&gt;档期：26档&lt;span style=&quot;&quot;&gt;	&lt;span style=&quot;&quot;&gt;	&lt;/span&gt;&lt;span style=&quot;&quot;&gt;	&lt;/span&gt;&lt;span style=&quot;&quot;&gt;	&lt;/span&gt;&lt;/span&gt;门店(平均)：25家&lt;br&gt;年份：3年&lt;span style=&quot;&quot;&gt;	&lt;span style=&quot;&quot;&gt;	&lt;/span&gt;&lt;span style=&quot;&quot;&gt;	&lt;/span&gt;&lt;span style=&quot;&quot;&gt;	&lt;/span&gt;&lt;/span&gt;Max=500家门店&lt;br style=&quot;border-color: var(--border-color);&quot;&gt;&lt;br style=&quot;border-color: var(--border-color);&quot;&gt;时间粒度数据&lt;br style=&quot;border-color: var(--border-color);&quot;&gt;档期（到店数据量）：300*25*25*(3*26)档=14,625,000&lt;br style=&quot;border-color: var(--border-color);&quot;&gt;到天（到天数据量）：300*25*25*(3*365)天=205,312,500" style="rounded=1;whiteSpace=wrap;html=1;align=left;fillColor=#f8cecc;strokeColor=#b85450;" vertex="1" parent="1">
          <mxGeometry x="-380" y="650" width="430" height="160" as="geometry" />
        </mxCell>
        <mxCell id="1oIEDaCn8aH1IIvnRZRh-33" value="【1】父客户编码&lt;br&gt;【2】档期期号&lt;br&gt;【3】档期开始日期&lt;br&gt;【4】档期结束日期" style="rounded=1;whiteSpace=wrap;html=1;align=left;fillColor=#dae8fc;strokeColor=#6c8ebf;" vertex="1" parent="1">
          <mxGeometry x="360" y="100" width="200" height="60" as="geometry" />
        </mxCell>
        <mxCell id="1oIEDaCn8aH1IIvnRZRh-35" value="【5】采购开始日&lt;br&gt;【6】采购结束日" style="rounded=1;whiteSpace=wrap;html=1;align=left;fillColor=#dae8fc;strokeColor=#6c8ebf;" vertex="1" parent="1">
          <mxGeometry x="560" y="100" width="240" height="60" as="geometry" />
        </mxCell>
        <mxCell id="1oIEDaCn8aH1IIvnRZRh-37" value="【1】父客户编码&lt;br&gt;【2】档期期号&lt;br&gt;【3】产品编码&lt;br&gt;【4】促销类型" style="rounded=1;whiteSpace=wrap;html=1;align=left;fillColor=#dae8fc;strokeColor=#6c8ebf;" vertex="1" parent="1">
          <mxGeometry x="360" y="200" width="197" height="60" as="geometry" />
        </mxCell>
        <mxCell id="1oIEDaCn8aH1IIvnRZRh-38" value="【5】促销售价&lt;br&gt;【6】档期内sell out销售保有量&lt;br&gt;【7】档期内sell out销售增量&lt;br&gt;【8】档期内的Sellin 销售量" style="rounded=1;whiteSpace=wrap;html=1;align=left;fillColor=#dae8fc;strokeColor=#6c8ebf;" vertex="1" parent="1">
          <mxGeometry x="557" y="200" width="243" height="60" as="geometry" />
        </mxCell>
        <mxCell id="1oIEDaCn8aH1IIvnRZRh-40" value="【1】父客户编码&lt;br&gt;【2】产品编码&lt;br&gt;【3】门店编码&lt;br&gt;【4】门店分配权重" style="rounded=1;whiteSpace=wrap;html=1;align=left;fillColor=#dae8fc;strokeColor=#6c8ebf;" vertex="1" parent="1">
          <mxGeometry x="360" y="300" width="440" height="60" as="geometry" />
        </mxCell>
        <mxCell id="1oIEDaCn8aH1IIvnRZRh-44" value="【1】父客户编码&lt;br&gt;【2】产品编码&lt;br&gt;【3】工作日权重&lt;br&gt;【4】节假日权重" style="rounded=1;whiteSpace=wrap;html=1;align=left;fillColor=#dae8fc;strokeColor=#6c8ebf;" vertex="1" parent="1">
          <mxGeometry x="360" y="410" width="197" height="60" as="geometry" />
        </mxCell>
        <mxCell id="1oIEDaCn8aH1IIvnRZRh-45" value="【5】双休日权重&lt;br&gt;【6】会员日权重" style="rounded=1;whiteSpace=wrap;html=1;align=left;fillColor=#dae8fc;strokeColor=#6c8ebf;" vertex="1" parent="1">
          <mxGeometry x="557" y="410" width="243" height="60" as="geometry" />
        </mxCell>
        <mxCell id="1oIEDaCn8aH1IIvnRZRh-47" value="" style="strokeWidth=2;html=1;shape=mxgraph.flowchart.annotation_2;align=left;labelPosition=right;pointerEvents=1;rotation=-180;" vertex="1" parent="1">
          <mxGeometry x="860" y="110" width="60" height="340" as="geometry" />
        </mxCell>
        <mxCell id="1oIEDaCn8aH1IIvnRZRh-48" value="&lt;font style=&quot;font-size: 24px;&quot;&gt;数据准备阶段&lt;/font&gt;" style="text;html=1;strokeColor=none;fillColor=none;align=center;verticalAlign=middle;whiteSpace=wrap;rounded=0;fontStyle=1" vertex="1" parent="1">
          <mxGeometry x="950" y="269" width="190" height="30" as="geometry" />
        </mxCell>
        <mxCell id="1oIEDaCn8aH1IIvnRZRh-49" value="数据量预计" style="text;html=1;strokeColor=none;fillColor=none;align=center;verticalAlign=middle;whiteSpace=wrap;rounded=0;fontSize=24;" vertex="1" parent="1">
          <mxGeometry x="-110" y="650" width="160" height="30" as="geometry" />
        </mxCell>
        <mxCell id="1oIEDaCn8aH1IIvnRZRh-50" value="性能预估" style="text;html=1;strokeColor=none;fillColor=none;align=center;verticalAlign=middle;whiteSpace=wrap;rounded=0;fontSize=24;" vertex="1" parent="1">
          <mxGeometry x="-110" y="810" width="160" height="30" as="geometry" />
        </mxCell>
        <mxCell id="1oIEDaCn8aH1IIvnRZRh-54" style="edgeStyle=orthogonalEdgeStyle;rounded=0;orthogonalLoop=1;jettySize=auto;html=1;exitX=0.5;exitY=1;exitDx=0;exitDy=0;entryX=0.5;entryY=0;entryDx=0;entryDy=0;fontSize=24;fontColor=#FF3333;" edge="1" parent="1" source="1oIEDaCn8aH1IIvnRZRh-53" target="1oIEDaCn8aH1IIvnRZRh-1">
          <mxGeometry relative="1" as="geometry" />
        </mxCell>
        <mxCell id="1oIEDaCn8aH1IIvnRZRh-53" value="父客户维&lt;br&gt;&lt;b&gt;&lt;font color=&quot;#ff3333&quot;&gt;数量：400个&lt;/font&gt;&lt;/b&gt;" style="rounded=1;whiteSpace=wrap;html=1;fillColor=#dae8fc;strokeColor=#6c8ebf;" vertex="1" parent="1">
          <mxGeometry x="120" width="120" height="60" as="geometry" />
        </mxCell>
        <mxCell id="1oIEDaCn8aH1IIvnRZRh-55" value="父客户*SKU*门店" style="text;html=1;strokeColor=none;fillColor=none;align=center;verticalAlign=middle;whiteSpace=wrap;rounded=0;fontSize=24;fontColor=#FF3333;" vertex="1" parent="1">
          <mxGeometry x="-260" y="315" width="240" height="30" as="geometry" />
        </mxCell>
        <mxCell id="1oIEDaCn8aH1IIvnRZRh-56" value="父客户*SKU*门店*档期" style="text;html=1;strokeColor=none;fillColor=none;align=center;verticalAlign=middle;whiteSpace=wrap;rounded=0;fontSize=24;fontColor=#FF3333;" vertex="1" parent="1">
          <mxGeometry x="380" y="700" width="390" height="30" as="geometry" />
        </mxCell>
        <mxCell id="1oIEDaCn8aH1IIvnRZRh-57" value="父客户*SKU*门店*到天" style="text;html=1;strokeColor=none;fillColor=none;align=center;verticalAlign=middle;whiteSpace=wrap;rounded=0;fontSize=24;fontColor=#FF3333;" vertex="1" parent="1">
          <mxGeometry x="360" y="1030" width="390" height="30" as="geometry" />
        </mxCell>
      </root>
    </mxGraphModel>
  </diagram>
</mxfile>
